<svg width="312" height="329" viewBox="0 0 312 329" fill="none" xmlns="http://www.w3.org/2000/svg">
<path d="M240.483 83.9979C229.222 61.8932 222.884 49.4786 209.308 31.4093C195.755 13.34 179.716 -4.75495 161.776 11.4123C152.709 19.5602 155.439 32.5146 162.191 45.3918C161.045 44.595 163.239 50.9437 162.166 50.0955C141.813 33.7226 137.474 35.5218 130.454 41.3822C113.782 55.2875 142.544 83.7152 151.929 98.9571C153.538 101.579 159.412 104.021 160.801 106.437C161.752 108.082 162.654 109.675 163.507 111.218C162.459 110.883 161.386 110.549 160.289 110.215C150.442 107.311 127.822 104.175 117.536 108.262C53.7219 133.656 56.9394 144.734 61.8388 159.282C66.7382 173.83 84.6294 184.574 113.879 165.4C149.979 149.669 179.96 170.746 179.96 192.645C179.96 222.718 170.624 239.707 146.128 239.707C107.396 239.707 105.324 206.396 84.6294 184.574C79.0475 178.688 65.6413 176.966 57.7194 183.006C39.2432 197.117 51.1869 226.393 55.7938 236.186C65.4463 256.671 77.3413 286.384 108.663 313.167C125.141 327.252 166.018 325.093 189.661 320.004C234.609 310.34 243.652 278.853 258.082 224.954C263.518 204.674 264.249 188.353 264.249 165.708C264.249 143.064 250.964 104.586 240.483 83.9979Z" fill="#ECECEC"/>
<path d="M239.606 155.478C236.73 142.523 213.208 122.269 203.409 115.587C202.41 109.932 187.955 76.672 178.595 63.5377C173.403 56.238 163.8 46.368 160.412 41.8442C160.412 41.8442 161.24 45.417 158.827 47.4732C159.753 48.6556 173.818 67.3417 179.668 81.2214C185.518 95.1011 190.368 110.112 190.368 110.112C184.007 107.876 158.852 98.9823 151.905 98.9566C151.905 98.9566 154.342 101.27 154.293 105.537C154.245 109.521 149.004 107.413 151.905 108.313C170.478 113.993 196.413 120.779 212.403 136.92C218.717 143.32 228.052 155.478 232.44 163.471C235.608 169.178 240.386 158.999 239.606 155.478Z" fill="white"/>
</svg>
