<svg width="23" height="23" viewBox="0 0 23 23" fill="none" xmlns="http://www.w3.org/2000/svg">
<path d="M19.6336 16.4258L15.738 12.8838C15.5539 12.7165 15.3119 12.6272 15.0632 12.6349C14.8144 12.6426 14.5784 12.7466 14.405 12.925L12.1117 15.2835C11.5597 15.1781 10.4499 14.8321 9.3076 13.6927C8.16527 12.5494 7.81931 11.4367 7.71677 10.8886L10.0733 8.59433C10.252 8.42099 10.3562 8.18495 10.3638 7.93615C10.3715 7.68735 10.2821 7.44533 10.1145 7.26129L6.57348 3.36662C6.40581 3.182 6.17278 3.07002 5.92388 3.05445C5.67497 3.03888 5.4298 3.12096 5.24044 3.28325L3.16085 5.0667C2.99517 5.23299 2.89628 5.4543 2.88294 5.68866C2.86856 5.92824 2.59448 11.6035 6.99515 16.0061C10.8342 19.8442 15.6431 20.125 16.9676 20.125C17.1611 20.125 17.28 20.1192 17.3116 20.1173C17.5459 20.1042 17.7671 20.0049 17.9326 19.8385L19.7151 17.7579C19.878 17.5692 19.9607 17.3242 19.9455 17.0753C19.9303 16.8264 19.8184 16.5933 19.6336 16.4258Z" fill="#DE1010"/>
</svg>
