<svg width="134" height="141" viewBox="0 0 134 141" fill="none" xmlns="http://www.w3.org/2000/svg">
<path d="M108.331 13.4701L112.122 37.5418L133.938 48.7046L122.937 70.5312L134 92.3578L111.998 103.521L108.207 127.592L84.0297 123.788L66.8135 141L49.5352 123.539L25.5445 127.53L21.6911 103.271L0 92.1707L11.0631 70.3441L0.0621521 48.7046L21.8776 37.4171L25.6688 13.5325L49.7217 17.5237L67 0L84.2161 17.2742L108.331 13.4701ZM51.462 39.3503C48.9894 39.3503 46.6181 40.3358 44.8697 42.0901C43.1214 43.8444 42.1391 46.2237 42.1391 48.7046C42.1391 51.1855 43.1214 53.5648 44.8697 55.319C46.6181 57.0733 48.9894 58.0588 51.462 58.0588C53.9345 58.0588 56.3058 57.0733 58.0542 55.319C59.8026 53.5648 60.7848 51.1855 60.7848 48.7046C60.7848 46.2237 59.8026 43.8444 58.0542 42.0901C56.3058 40.3358 53.9345 39.3503 51.462 39.3503ZM82.538 83.0035C80.0655 83.0035 77.6942 83.9891 75.9458 85.7433C74.1974 87.4976 73.2152 89.8769 73.2152 92.3578C73.2152 94.8387 74.1974 97.218 75.9458 98.9723C77.6942 100.727 80.0655 101.712 82.538 101.712C85.0106 101.712 87.3819 100.727 89.1303 98.9723C90.8786 97.218 91.8608 94.8387 91.8608 92.3578C91.8608 89.8769 90.8786 87.4976 89.1303 85.7433C87.3819 83.9891 85.0106 83.0035 82.538 83.0035ZM44.6874 101.712L98.0761 48.1433L89.3126 39.3503L35.9239 92.9191L44.6874 101.712Z" fill="#FCDE41"/>
<path d="M26.7267 30.121H105.784V109.445H26.7267V30.121Z" fill="#FCDE41"/>
</svg>
