<svg width="274" height="274" viewBox="0 0 274 274" fill="none" xmlns="http://www.w3.org/2000/svg">
<path d="M256.866 90.861C256.854 90.4243 256.841 89.8977 256.841 89.1399V86.8837C256.841 85.1284 256.648 84.7773 255.715 84.2978C255.047 83.9553 254.362 83.6385 253.668 83.3174C233.345 39.1991 188.76 8.5625 137 8.5625C85.2397 8.5625 40.659 39.1991 20.3274 83.3174C19.6381 83.6342 18.9531 83.951 18.2852 84.2978C17.3476 84.773 17.1635 85.1241 17.1635 86.8837V89.1399C17.1635 89.902 17.1507 90.4286 17.1378 90.8695C11.6193 105.182 8.5625 120.736 8.5625 137C8.5625 207.932 66.0682 265.438 137 265.438C207.932 265.438 265.438 207.932 265.438 137C265.438 120.736 262.381 105.182 256.866 90.861ZM137 19.2656C181.003 19.2656 219.423 43.5489 239.626 79.4044C223.597 76.7286 201.977 76.8955 190.533 77.8888C175.822 79.186 163.531 82.4954 153.474 87.6458C144.064 92.3466 129.94 92.3466 120.521 87.6458C110.465 82.4954 98.1733 79.1817 83.4715 77.8888C72.0277 76.8955 50.4117 76.7286 34.3784 79.4044C54.5774 43.5489 92.9973 19.2656 137 19.2656ZM137 254.734C72.0791 254.734 19.2656 201.921 19.2656 137C19.2656 123.981 21.4234 111.454 25.345 99.7317C27.8966 104.296 29.6177 110.662 30.7351 118.338C33.2953 136.375 42.1489 147.682 56.5168 153.08C69.8529 158.089 84.7773 157.914 98.0021 152.631C105.242 149.737 111.599 145.173 116.647 137.745C125.496 124.743 122.846 116.613 127.419 105.434C131.409 95.6859 142.578 95.6859 146.569 105.434C151.137 116.613 148.487 124.743 157.34 137.745C162.388 145.169 168.745 149.737 175.981 152.631C189.21 157.914 204.134 158.089 217.47 153.08C231.838 147.677 240.692 136.375 243.252 118.338C244.374 110.662 246.091 104.291 248.646 99.7317C252.568 111.454 254.726 123.972 254.726 137C254.734 201.921 201.921 254.734 137 254.734Z" fill="#ECECEC"/>
<path d="M190.874 181.007C156.158 205.222 117.643 205.08 83.1237 181.007C78.9709 178.104 75.2248 183.122 78.0418 187.763C88.5609 205.089 109.796 220.51 136.999 220.51C164.202 220.51 185.437 205.08 195.956 187.763C198.777 183.122 195.031 178.117 190.874 181.007Z" fill="#ECECEC"/>
</svg>
