<svg width="18" height="19" fill="none" xmlns="http://www.w3.org/2000/svg"><path d="M9 0C6.558 0 6.25.012 5.29.057c-.959.047-1.612.207-2.185.442-.6.238-1.145.612-1.594 1.096A4.696 4.696 0 00.473 3.277C.25 3.881.097 4.572.053 5.582.011 6.597 0 6.92 0 9.501c0 2.58.011 2.902.054 3.915.045 1.012.196 1.702.418 2.306a4.7 4.7 0 001.039 1.683c.5.529 1.001.854 1.593 1.096.574.235 1.226.396 2.185.442.96.045 1.266.057 3.711.057s2.75-.012 3.71-.057c.958-.048 1.613-.207 2.186-.442a4.39 4.39 0 001.593-1.096 4.7 4.7 0 001.038-1.683c.222-.604.374-1.294.419-2.306.043-1.013.054-1.336.054-3.916s-.011-2.903-.054-3.918c-.045-1.01-.197-1.701-.419-2.304a4.695 4.695 0 00-1.038-1.683A4.385 4.385 0 0014.895.499c-.574-.235-1.229-.396-2.186-.442C11.75.012 11.444 0 8.998 0H9zm-.807 1.712h.808c2.403 0 2.688.009 3.636.055.878.042 1.355.197 1.672.327.42.172.72.378 1.035.71.315.333.51.65.673 1.093.123.334.27.838.309 1.764.044 1 .053 1.301.053 3.837 0 2.535-.01 2.837-.053 3.838-.04.926-.187 1.428-.31 1.763a2.954 2.954 0 01-.673 1.091 2.771 2.771 0 01-1.035.71c-.315.131-.792.286-1.67.328-.95.045-1.234.056-3.637.056s-2.689-.01-3.637-.056c-.877-.043-1.353-.197-1.67-.328a2.779 2.779 0 01-1.036-.71c-.3-.306-.53-.68-.675-1.092-.122-.334-.27-.837-.309-1.764-.043-1-.052-1.301-.052-3.839 0-2.536.01-2.835.052-3.837.04-.926.187-1.43.31-1.764.164-.443.36-.76.674-1.093a2.771 2.771 0 011.035-.71c.318-.13.794-.285 1.671-.328.83-.04 1.152-.052 2.83-.053v.002zm5.612 1.577a1.067 1.067 0 00-.763.334c-.101.106-.18.232-.235.37a1.195 1.195 0 00.234 1.242 1.041 1.041 0 001.528 0c.202-.213.316-.503.316-.806 0-.302-.114-.592-.316-.806a1.052 1.052 0 00-.764-.334zM9 4.622a4.409 4.409 0 00-1.79.349c-.57.24-1.088.598-1.525 1.053a4.902 4.902 0 00-1.02 1.592 5.115 5.115 0 000 3.77 4.902 4.902 0 001.02 1.592 4.6 4.6 0 001.524 1.052c.57.24 1.178.36 1.791.35a4.508 4.508 0 003.222-1.456 5.023 5.023 0 001.33-3.424c0-1.281-.477-2.51-1.329-3.424a4.508 4.508 0 00-3.222-1.455zm0 1.71c.796 0 1.559.335 2.122.929.562.593.879 1.399.879 2.239a3.26 3.26 0 01-.88 2.24 2.923 2.923 0 01-2.12.927 2.923 2.923 0 01-2.122-.928A3.259 3.259 0 016 9.5c0-.84.317-1.646.88-2.24A2.923 2.923 0 019 6.334z" fill="#fff"/></svg>