<svg width="18" height="11" fill="none" xmlns="http://www.w3.org/2000/svg"><path d="M17.164 1.125c.122-.407 0-.706-.58-.706h-1.918c-.489 0-.712.259-.834.542 0 0-.976 2.38-2.358 3.922-.447.449-.65.59-.894.59-.121 0-.298-.141-.298-.548v-3.8c0-.489-.14-.706-.548-.706H6.72c-.305 0-.488.226-.488.441 0 .462.691.57.762 1.871v2.825c0 .618-.111.731-.356.731-.65 0-2.232-2.388-3.171-5.121C3.283.635 3.098.42 2.608.42H.69C.142.42.032.678.032.962c0 .51.65 3.03 3.029 6.362 1.585 2.276 3.817 3.51 5.85 3.51 1.22 0 1.37-.274 1.37-.747v-1.72c0-.548.117-.658.502-.658.284 0 .772.144 1.91 1.24 1.3 1.3 1.516 1.884 2.247 1.884h1.918c.547 0 .821-.274.664-.815-.173-.538-.794-1.321-1.618-2.248-.448-.528-1.117-1.097-1.321-1.381-.285-.367-.203-.529 0-.854 0 0 2.338-3.291 2.58-4.41z" fill="#fff"/></svg>