<svg width="18" height="19" viewBox="0 0 18 19" fill="none" xmlns="http://www.w3.org/2000/svg">
<path d="M9 0C6.55762 0 6.2505 0.011875 5.29087 0.057C4.33125 0.1045 3.67762 0.263625 3.105 0.49875C2.50436 0.737223 1.9603 1.11129 1.51088 1.59481C1.05309 2.06945 0.698746 2.64366 0.4725 3.2775C0.24975 3.88075 0.097875 4.57187 0.054 5.58125C0.01125 6.59656 0 6.91956 0 9.50119C0 12.0804 0.01125 12.4034 0.054 13.4164C0.099 14.4281 0.24975 15.1181 0.4725 15.7225C0.703125 16.3471 1.01025 16.8767 1.51088 17.4052C2.01038 17.9336 2.51213 18.259 3.10388 18.5012C3.67763 18.7364 4.33013 18.8967 5.28863 18.943C6.24938 18.9881 6.55538 19 9 19C11.4446 19 11.7495 18.9881 12.7103 18.943C13.6676 18.8955 14.3235 18.7364 14.8961 18.5012C15.4964 18.2627 16.04 17.8886 16.4891 17.4052C16.9897 16.8767 17.2969 16.3471 17.5275 15.7225C17.7491 15.1181 17.901 14.4281 17.946 13.4164C17.9888 12.4034 18 12.0804 18 9.5C18 6.91956 17.9888 6.59656 17.946 5.58244C17.901 4.57188 17.7491 3.88075 17.5275 3.2775C17.3013 2.64364 16.9469 2.06943 16.4891 1.59481C16.0398 1.11111 15.4957 0.737016 14.895 0.49875C14.3212 0.263625 13.6665 0.103312 12.7091 0.057C11.7484 0.011875 11.4435 0 8.99775 0H9.00113H9ZM8.19337 1.71238H9.00113C11.4041 1.71238 11.6887 1.72069 12.6371 1.767C13.5146 1.80856 13.9916 1.96413 14.3089 2.09356C14.7285 2.26575 15.0289 2.47237 15.3439 2.80487C15.6589 3.13737 15.8535 3.45325 16.0166 3.89738C16.1404 4.23106 16.2866 4.73456 16.326 5.66081C16.3699 6.66188 16.3789 6.96231 16.3789 9.49763C16.3789 12.0329 16.3699 12.3346 16.326 13.3356C16.2866 14.2619 16.1392 14.7642 16.0166 15.0991C15.8723 15.5116 15.642 15.8845 15.3427 16.1904C15.0277 16.5229 14.7285 16.7283 14.3078 16.9005C13.9928 17.0311 13.5157 17.1855 12.6371 17.2283C11.6887 17.2734 11.4041 17.2841 9.00113 17.2841C6.59813 17.2841 6.31238 17.2734 5.364 17.2283C4.4865 17.1855 4.01062 17.0311 3.69338 16.9005C3.30244 16.7484 2.94877 16.5057 2.65837 16.1904C2.35884 15.884 2.12819 15.5107 1.98338 15.0979C1.86075 14.7642 1.71338 14.2607 1.674 13.3344C1.63125 12.3334 1.62225 12.0329 1.62225 9.49525C1.62225 6.95875 1.63125 6.6595 1.674 5.65844C1.7145 4.73219 1.86075 4.22869 1.9845 3.89381C2.14762 3.45088 2.34337 3.13381 2.65837 2.80131C2.97337 2.46881 3.27262 2.26338 3.69338 2.09119C4.01062 1.96056 4.4865 1.80619 5.364 1.76344C6.19425 1.72306 6.516 1.71119 8.19337 1.71V1.71238ZM13.8049 3.28938C13.663 3.28938 13.5226 3.31886 13.3916 3.37615C13.2605 3.43344 13.1415 3.51741 13.0412 3.62327C12.9409 3.72913 12.8614 3.8548 12.8071 3.99312C12.7528 4.13143 12.7249 4.27967 12.7249 4.42938C12.7249 4.57908 12.7528 4.72732 12.8071 4.86563C12.8614 5.00394 12.9409 5.12962 13.0412 5.23548C13.1415 5.34134 13.2605 5.42531 13.3916 5.4826C13.5226 5.53989 13.663 5.56938 13.8049 5.56938C14.0913 5.56938 14.366 5.44927 14.5686 5.23548C14.7711 5.02169 14.8849 4.73172 14.8849 4.42938C14.8849 4.12703 14.7711 3.83706 14.5686 3.62327C14.366 3.40948 14.0913 3.28938 13.8049 3.28938ZM9.00113 4.62175C8.38808 4.61165 7.77926 4.73039 7.2101 4.97104C6.64094 5.2117 6.12283 5.56946 5.68592 6.0235C5.24901 6.47755 4.90203 7.0188 4.6652 7.61575C4.42836 8.21269 4.30639 8.85341 4.30639 9.50059C4.30639 10.1478 4.42836 10.7885 4.6652 11.3854C4.90203 11.9824 5.24901 12.5236 5.68592 12.9777C6.12283 13.4317 6.64094 13.7895 7.2101 14.0301C7.77926 14.2708 8.38808 14.3895 9.00113 14.3794C10.2145 14.3595 11.3717 13.8366 12.2231 12.9239C13.0745 12.0111 13.5516 10.7815 13.5516 9.50059C13.5516 8.21967 13.0745 6.99011 12.2231 6.07733C11.3717 5.16454 10.2145 4.64173 9.00113 4.62175ZM9.00113 6.33294C9.79687 6.33294 10.56 6.66661 11.1227 7.26055C11.6854 7.85449 12.0015 8.66004 12.0015 9.5C12.0015 10.34 11.6854 11.1455 11.1227 11.7395C10.56 12.3334 9.79687 12.6671 9.00113 12.6671C8.20538 12.6671 7.44222 12.3334 6.87954 11.7395C6.31686 11.1455 6.00075 10.34 6.00075 9.5C6.00075 8.66004 6.31686 7.85449 6.87954 7.26055C7.44222 6.66661 8.20538 6.33294 9.00113 6.33294Z" fill="white"/>
</svg>
