<svg width="18" height="11" viewBox="0 0 18 11" fill="none" xmlns="http://www.w3.org/2000/svg">
<path d="M17.1639 1.12468C17.2864 0.717809 17.1639 0.419434 16.5846 0.419434H14.6657C14.1775 0.419434 13.9544 0.677559 13.8319 0.961059C13.8319 0.961059 12.8562 3.34018 11.4737 4.88281C11.0275 5.33168 10.8236 5.47343 10.5804 5.47343C10.4587 5.47343 10.282 5.33168 10.282 4.92481V1.12468C10.282 0.636434 10.1411 0.419434 9.73423 0.419434H6.71898C6.41448 0.419434 6.23073 0.645184 6.23073 0.860434C6.23073 1.32243 6.92198 1.42918 6.99285 2.73118V5.55568C6.99285 6.17431 6.88173 6.28718 6.63673 6.28718C5.9866 6.28718 4.4046 3.89931 3.46573 1.16581C3.28285 0.634684 3.09823 0.420309 2.60823 0.420309H0.690227C0.141602 0.420309 0.0322266 0.678434 0.0322266 0.961934C0.0322266 1.47118 0.682352 3.99118 3.0606 7.32406C4.6461 9.59993 6.87823 10.8337 8.91173 10.8337C10.1306 10.8337 10.2811 10.5598 10.2811 10.0873V8.36706C10.2811 7.81931 10.3975 7.70906 10.7834 7.70906C11.0669 7.70906 11.5551 7.85256 12.6935 8.94893C13.9937 10.2492 14.209 10.8328 14.9396 10.8328H16.8576C17.4054 10.8328 17.6792 10.5589 17.5217 10.0182C17.3494 9.48006 16.7281 8.69693 15.9039 7.77031C15.4559 7.24181 14.7865 6.67306 14.5826 6.38868C14.2982 6.02206 14.3805 5.86018 14.5826 5.53468C14.5835 5.53556 16.9206 2.24381 17.1639 1.12468Z" fill="white"/>
</svg>
