<svg width="312" height="329" fill="none" xmlns="http://www.w3.org/2000/svg"><path d="M240.483 83.998c-11.261-22.105-17.599-34.52-31.175-52.589-13.553-18.069-29.592-36.164-47.532-19.997-9.067 8.148-6.337 21.103.415 33.98-1.146-.797 1.048 5.552-.025 4.703-20.353-16.372-24.692-14.573-31.712-8.713-16.672 13.906 12.09 42.333 21.475 57.575 1.609 2.622 7.483 5.064 8.872 7.48a286.969 286.969 0 012.706 4.781 243.754 243.754 0 00-3.218-1.003c-9.847-2.904-32.467-6.04-42.753-1.953-63.814 25.394-60.597 36.472-55.697 51.02 4.9 14.548 22.79 25.292 52.04 6.118 36.1-15.731 66.081 5.346 66.081 27.245 0 30.073-9.336 47.062-33.832 47.062-38.732 0-40.804-33.311-61.499-55.133-5.582-5.886-18.988-7.608-26.91-1.568-18.476 14.111-6.532 43.387-1.925 53.18 9.652 20.485 21.547 50.198 52.869 76.981 16.478 14.085 57.355 11.926 80.998 6.837 44.948-9.664 53.991-41.151 68.421-95.05 5.436-20.28 6.167-36.601 6.167-59.246 0-22.644-13.285-61.122-23.766-81.71z" fill="#ECECEC"/><path d="M239.606 155.478c-2.876-12.955-26.398-33.209-36.197-39.891-.999-5.655-15.454-38.915-24.814-52.05-5.192-7.299-14.795-17.169-18.183-21.693 0 0 .828 3.573-1.585 5.63.926 1.182 14.991 19.868 20.841 33.747 5.85 13.88 10.7 28.891 10.7 28.891-6.361-2.236-31.516-11.13-38.463-11.155 0 0 2.437 2.313 2.388 6.58-.048 3.984-5.289 1.876-2.388 2.776 18.573 5.68 44.508 12.466 60.498 28.607 6.314 6.4 15.649 18.558 20.037 26.551 3.168 5.707 7.946-4.472 7.166-7.993z" fill="#fff"/></svg>