<svg width="134" height="141" fill="none" xmlns="http://www.w3.org/2000/svg"><path d="M108.331 13.47l3.791 24.072 21.816 11.163-11.001 21.826L134 92.358l-22.002 11.163-3.791 24.071-24.177-3.804L66.814 141l-17.279-17.461-23.99 3.991-3.854-24.259L0 92.171l11.063-21.827-11-21.64 21.815-11.287 3.79-23.885 24.054 3.992L67 0l17.216 17.274 24.115-3.804zM51.462 39.35a9.307 9.307 0 00-6.592 2.74 9.37 9.37 0 00-2.73 6.615c0 2.48.981 4.86 2.73 6.614a9.307 9.307 0 006.592 2.74 9.307 9.307 0 006.592-2.74 9.37 9.37 0 002.73-6.614 9.37 9.37 0 00-2.73-6.615 9.307 9.307 0 00-6.592-2.74zm31.076 43.654a9.307 9.307 0 00-6.592 2.74 9.37 9.37 0 00-2.73 6.614c0 2.48.981 4.86 2.73 6.614a9.305 9.305 0 0013.184 0 9.37 9.37 0 002.73-6.614 9.37 9.37 0 00-2.73-6.615 9.307 9.307 0 00-6.592-2.74zm-37.85 18.708l53.388-53.569-8.763-8.793-53.39 53.57 8.764 8.792z" fill="#FCDE41"/><path d="M26.727 30.121h79.057v79.324H26.727V30.121z" fill="#FCDE41"/></svg>