<svg width="274" height="274" fill="none" xmlns="http://www.w3.org/2000/svg"><path d="M256.866 90.861a58.116 58.116 0 01-.025-1.721v-2.256c0-1.756-.193-2.107-1.126-2.586a53.704 53.704 0 00-2.047-.98C233.345 39.198 188.76 8.562 137 8.562c-51.76 0-96.341 30.636-116.673 74.754-.689.317-1.374.634-2.042.98-.937.476-1.122.827-1.122 2.587v2.256c0 .762-.012 1.289-.025 1.73A127.973 127.973 0 008.562 137c0 70.932 57.506 128.438 128.438 128.438 70.932 0 128.438-57.506 128.438-128.438 0-16.264-3.057-31.818-8.572-46.139zM137 19.266c44.003 0 82.423 24.283 102.626 60.138-16.029-2.675-37.649-2.508-49.093-1.515-14.711 1.297-27.002 4.606-37.059 9.757-9.41 4.7-23.534 4.7-32.953 0-10.056-5.15-22.348-8.464-37.05-9.757-11.443-.993-33.06-1.16-49.093 1.515C54.578 43.55 92.998 19.266 137 19.266zm0 235.468c-64.92 0-117.734-52.813-117.734-117.734 0-13.019 2.157-25.546 6.079-37.268 2.552 4.564 4.273 10.93 5.39 18.606 2.56 18.037 11.414 29.344 25.782 34.742 13.336 5.009 28.26 4.834 41.485-.449 7.24-2.894 13.597-7.458 18.645-14.886 8.849-13.002 6.199-21.132 10.772-32.311 3.99-9.748 15.159-9.748 19.15 0 4.568 11.179 1.918 19.309 10.771 32.311 5.048 7.424 11.405 11.992 18.641 14.886 13.229 5.283 28.153 5.458 41.489.449 14.368-5.403 23.222-16.705 25.782-34.742 1.122-7.676 2.839-14.047 5.394-18.606a117.21 117.21 0 016.08 37.268c.008 64.921-52.805 117.734-117.726 117.734z" fill="#ECECEC"/><path d="M190.874 181.007c-34.716 24.215-73.231 24.073-107.75 0-4.153-2.903-7.9 2.115-5.082 6.756 10.519 17.326 31.754 32.747 58.957 32.747s48.438-15.43 58.957-32.747c2.821-4.641-.925-9.646-5.082-6.756z" fill="#ECECEC"/></svg>